# xmcd
#
# Track frame offsets:
#	150
#	15755
#	32280
#	48860
#	62812
#	77947
#	93372
#	110677
#	126267
#	142282
#	156907
#	173472
#	188487
#	205850
#
# Disc length: 2927
#
# Revision: 1
# Processed by: cddbd v1.5.1PL0 Copyright (c) Steve Scherf et al.
# Submitted via: CD-Transfer v1.0
# Normalized: r0:DSETVAR2
#
DISCID=af0b6d0e
DTITLE=Various Artist - Maximum Dance Vol. 1998-13
DYEAR=1998
DGENRE=
TTITLE0=Blank and Jones - Flying To The Moon
TTITLE1=Culture Beat - You Belong
TTITLE2=Rapublic - Ti Amo '98
TTITLE3=The Tamperer Feat. Maya - If You Buy This Record Your Life Will Be Better
TTITLE4=666 - Paradoxx
TTITLE5=Scooter - We Are The Greatest
TTITLE6=Paul Van Dyk - For An Angel
TTITLE7=Dj Quicksilver - Escape To Paradise
TTITLE8=Sugarbabies - Five Tones
TTITLE9=Atb - 9 Pm (Till I Come)
TTITLE10=Dj Silencer - Mystic Place
TTITLE11=Milford - Come N' 60
TTITLE12=Billy Hendrix - Body Shine
TTITLE13=5ive - Everybody Get Up
EXTD=
EXTT0=
EXTT1=
EXTT2=
EXTT3=
EXTT4=
EXTT5=
EXTT6=
EXTT7=
EXTT8=
EXTT9=
EXTT10=
EXTT11=
EXTT12=
EXTT13=
PLAYORDER=
